<?xml version="1.0" encoding="iso-8859-1"?>
<!-- Generator: Adobe Illustrator 19.0.0, SVG Export Plug-In . SVG Version: 6.00 Build 0)  -->
<svg version="1.1" id="Capa_1" xmlns="http://www.w3.org/2000/svg" xmlns:xlink="http://www.w3.org/1999/xlink" x="0px" y="0px"
	 viewBox="0 0 146.579 146.579" style="enable-background:new 0 0 146.579 146.579;" xml:space="preserve">
<g>
	<path style="fill:#010002;" d="M73.284,146.577C32.875,146.577,0,113.701,0,73.289S32.875,0.002,73.284,0.002
		c40.416,0,73.295,32.875,73.295,73.287S113.7,146.577,73.284,146.577z M73.284,7.605c-36.217,0-65.68,29.467-65.68,65.684
		s29.463,65.684,65.68,65.684c36.224,0,65.691-29.467,65.691-65.684S109.508,7.605,73.284,7.605z"/>
	<g>
		<path style="fill:#010002;" d="M53.889,55.335c0,2.881-2.332,5.212-5.209,5.212c-2.881,0-5.212-2.331-5.212-5.212
			s2.331-5.213,5.212-5.213C51.557,50.122,53.889,52.454,53.889,55.335z"/>
		<path style="fill:#010002;" d="M103.107,55.335c0,2.881-2.327,5.212-5.208,5.212s-5.213-2.331-5.213-5.212
			s2.332-5.213,5.213-5.213S103.107,52.454,103.107,55.335z"/>
	</g>
	<polygon style="fill:#010002;" points="92.957,91.702 87.581,86.326 73.284,100.624 58.987,86.327 53.611,91.703 67.908,106 
		53.611,120.297 58.987,125.673 73.284,111.376 87.581,125.674 92.957,120.298 78.66,106 	"/>
</g>
<g>
</g>
<g>
</g>
<g>
</g>
<g>
</g>
<g>
</g>
<g>
</g>
<g>
</g>
<g>
</g>
<g>
</g>
<g>
</g>
<g>
</g>
<g>
</g>
<g>
</g>
<g>
</g>
<g>
</g>
</svg>
